<?xml version="1.0" encoding="UTF-8"?>
<svg width="30px" height="30px" viewBox="0 0 30 30" version="1.1" xmlns="http://www.w3.org/2000/svg" xmlns:xlink="http://www.w3.org/1999/xlink">
    <!-- Generator: Sketch 51.1 (57501) - http://www.bohemiancoding.com/sketch -->
    <title>BTC</title>
    <desc>Created with Sketch.</desc>
    <defs></defs>
    <g id="Page-1" stroke="none" stroke-width="1" fill="none" fill-rule="evenodd">
        <g id="Artboard" transform="translate(-347.000000, -309.000000)">
            <g id="BTC" transform="translate(347.000000, 309.000000)">
                <path d="M29.8725821,15.0740896 C29.8725821,23.3172239 23.1903433,29.9994627 14.947209,29.9994627 C6.70407463,29.9994627 0.0218358209,23.3172239 0.0218358209,15.0740896 C0.0218358209,6.83095522 6.70407463,0.148716418 14.947209,0.148716418 C23.1903433,0.148716418 29.8725821,6.83095522 29.8725821,15.0740896" id="Fill-504" fill="#F7931A"></path>
                <path d="M18.5710448,19.4361194 C18.4461194,19.8559701 18.1650746,20.2019403 17.7797015,20.4102985 C17.3943284,20.6189552 16.9510448,20.6649254 16.531194,20.5398507 L12.3280597,19.2880597 L13.2644776,16.1443284 L17.4673134,17.3962687 L17.4674627,17.3962687 C18.3340299,17.6543284 18.8292537,18.569403 18.5710448,19.4361194 M19.9886567,12.9935821 C20.1970149,13.3789552 20.2429851,13.8222388 20.1180597,14.2422388 C19.8598507,15.1086567 18.9443284,15.6035821 18.078209,15.3459701 L18.0780597,15.3459701 L13.8750746,14.0941791 L14.811194,10.9504478 L19.0143284,12.2022388 C19.4341791,12.3273134 19.7801493,12.608209 19.9886567,12.9935821 M21.8701493,11.9756716 C21.3897015,11.0877612 20.5922388,10.44 19.6249254,10.1519403 L19.068806,9.98641791 L19.8473134,7.37238806 L17.8498507,6.77746269 L17.0713433,9.39149254 L15.3659701,8.88358209 L16.1446269,6.26955224 L15.6661194,6.12701493 L13.7276119,5.54970149 L12.9771642,8.06940299 L10.6147761,7.3658209 L9.9480597,9.60462687 L12.3104478,10.3083582 L9.88343284,18.4573134 L7.52104478,17.7537313 L6.85432836,19.9926866 L9.21656716,20.6961194 L8.58328358,22.8228358 L9.06164179,22.9653731 L11.0001493,23.5426866 L11.6616418,21.3216418 L13.3710448,21.8307463 L12.7095522,24.0519403 L14.6989552,24.6444776 L15.3604478,22.4232836 L15.9204478,22.59 C16.2774627,22.6962687 16.6420896,22.7489552 17.0044776,22.7489552 C17.6238806,22.7489552 18.2374627,22.5950746 18.7976119,22.2919403 C19.6855224,21.8114925 20.3331343,21.0141791 20.6213433,20.0465672 C20.9243284,19.028806 20.7747761,17.9832836 20.2928358,17.1226866 C21.1677612,16.6661194 21.8649254,15.8710448 22.168209,14.8528358 C22.4564179,13.8852239 22.3504478,12.8634328 21.8701493,11.9756716" id="Fill-505" fill="#FFFFFF"></path>
            </g>
        </g>
    </g>
</svg>