<?xml version="1.0" standalone="no"?><!DOCTYPE svg PUBLIC "-//W3C//DTD SVG 1.1//EN" "http://www.w3.org/Graphics/SVG/1.1/DTD/svg11.dtd"><svg t="1559186929588" class="icon" style="" viewBox="0 0 1024 1024" version="1.1" xmlns="http://www.w3.org/2000/svg" p-id="3186" xmlns:xlink="http://www.w3.org/1999/xlink" width="200" height="200"><defs><style type="text/css"></style></defs><path d="M767.134 483.689c21.21-29.69 33.936-67.338 33.936-107.635 0-97.561-72.64-176.566-162.78-176.566h-25.982v-136.8a14.26 14.26 0 0 0-14.317-14.317h-47.189a14.26 14.26 0 0 0-14.317 14.317v136.8h-75.293v-136.8a14.26 14.26 0 0 0-14.317-14.317h-47.189a14.26 14.26 0 0 0-14.317 14.317v136.8H230.543a14.26 14.26 0 0 0-14.317 14.317v47.718c0 7.421 5.302 13.786 12.725 14.317 53.023 4.771 81.651 40.298 81.651 84.306v292.15c0 39.236-20.145 70.522-64.687 74.759-6.365 0.527-11.664 5.302-12.725 11.134l-9.012 48.254c-1.589 8.483 4.771 16.439 13.786 16.439h147.931v136.265a14.26 14.26 0 0 0 14.317 14.317h47.189a14.26 14.26 0 0 0 14.317-14.317v-136.8h75.293v136.8a14.26 14.26 0 0 0 14.317 14.317h47.189a14.26 14.26 0 0 0 14.317-14.317v-136.8h63.627c89.607 0 162.78-77.941 162.78-174.446-0.527-59.917-29.165-112.94-72.11-144.219zM461.733 311.898h115.59c42.95 0 77.941 34.991 77.941 77.941s-34.991 77.941-77.941 77.941h-115.59V311.895z m152.704 382.288H461.202V538.832h153.235c42.948 0 77.941 34.991 77.941 77.941 0 42.417-34.464 77.412-77.941 77.412z" p-id="3187" fill="#dbdbdb"></path></svg>