<?xml version="1.0" standalone="no"?>
<!DOCTYPE svg PUBLIC "-//W3C//DTD SVG 20010904//EN"
 "http://www.w3.org/TR/2001/REC-SVG-20010904/DTD/svg10.dtd">
<svg version="1.0" xmlns="http://www.w3.org/2000/svg"
 width="1280.000000pt" height="1280.000000pt" viewBox="0 0 1280.000000 1280.000000"
 preserveAspectRatio="xMidYMid meet">
<metadata>
Created by potrace 1.15, written by Peter Selinger 2001-2017
</metadata>
<g transform="translate(0.000000,1280.000000) scale(0.100000,-0.100000)"
fill="#ffffff" stroke="none">
<path d="M6145 12744 c-1409 -65 -2767 -594 -3845 -1496 -1607 -1347 -2460
-3509 -2204 -5588 90 -733 311 -1459 645 -2120 141 -279 390 -697 409 -685 5
3 12 0 16 -6 4 -8 3 -9 -4 -5 -19 12 -14 -3 20 -52 55 -82 228 -312 233 -312
3 0 -32 51 -78 113 -95 129 -147 203 -147 211 0 21 27 -8 98 -107 45 -61 95
-128 112 -147 17 -19 -7 17 -53 80 -616 845 -1018 1815 -1172 2825 -39 254
-57 464 -69 775 l-4 115 10 -105 10 -105 67 -32 c62 -30 89 -42 203 -92 26
-12 52 -21 58 -21 6 0 18 -4 28 -10 14 -8 102 -37 237 -80 47 -14 174 -46 240
-59 33 -7 78 -17 100 -21 22 -5 78 -14 125 -20 47 -6 115 -15 152 -21 37 -5
98 -9 136 -9 38 0 96 -3 130 -6 l60 -7 7 -44 c3 -25 8 -43 10 -41 2 2 -5 71
-15 153 -11 83 -21 202 -24 265 l-5 115 9 -100 c46 -512 153 -970 332 -1420
455 -1140 1291 -2036 2393 -2566 1011 -485 2134 -611 3205 -358 1096 259 2044
863 2730 1739 97 123 278 394 362 540 284 496 482 1040 582 1600 79 437 90
975 30 1420 -181 1337 -896 2532 -1974 3297 -515 366 -1100 631 -1715 778
-737 176 -1496 176 -2229 0 -82 -19 -151 -33 -153 -31 -3 2 77 24 177 48 100
23 176 44 168 46 -7 1 -20 17 -27 35 -67 157 -142 304 -229 447 -46 77 -101
161 -111 170 -3 3 -21 28 -40 55 -87 126 -195 250 -356 411 l-122 121 -44 -14
c-45 -13 -66 -16 -58 -9 10 11 334 98 497 135 441 100 778 140 1247 148 571
10 1070 -45 1595 -177 68 -17 125 -29 127 -27 2 2 -27 12 -64 21 -173 45 -224
73 -63 36 50 -12 93 -20 96 -18 16 16 -534 128 -801 163 -295 39 -781 61
-1050 49z m1448 -131 c-7 -2 -19 -2 -25 0 -7 3 -2 5 12 5 14 0 19 -2 13 -5z
m44 -9 c-3 -3 -12 -4 -19 -1 -8 3 -5 6 6 6 11 1 17 -2 13 -5z m60 -10 c-3 -3
-12 -4 -19 -1 -8 3 -5 6 6 6 11 1 17 -2 13 -5z m47 -13 c4 -5 -3 -7 -14 -4
-23 6 -26 13 -6 13 8 0 17 -4 20 -9z m46 -5 c0 -11 -19 -15 -25 -6 -3 5 1 10
9 10 9 0 16 -2 16 -4z m-3241 -171 c-8 -7 -133 -44 -137 -40 -2 2 25 13 60 24
64 20 85 25 77 16z m626 -1315 c-11 -5 -27 -9 -35 -9 -9 0 -8 4 5 9 11 5 27 9
35 9 9 0 8 -4 -5 -9z m-70 -20 c-11 -5 -27 -9 -35 -9 -9 0 -8 4 5 9 11 5 27 9
35 9 9 0 8 -4 -5 -9z m1792 -486 c1131 -116 2183 -692 2870 -1569 421 -538
705 -1173 827 -1850 49 -268 61 -409 61 -715 0 -367 -31 -630 -111 -956 -182
-747 -543 -1402 -1069 -1943 -331 -340 -684 -596 -1125 -815 -455 -226 -887
-355 -1415 -423 -199 -25 -721 -25 -920 0 -528 68 -937 190 -1400 417 -670
328 -1200 789 -1608 1397 -302 450 -506 930 -621 1463 -49 224 -87 518 -84
645 1 59 2 52 8 -42 10 -136 40 -373 49 -373 31 0 257 49 366 79 69 19 331
104 370 120 11 5 31 13 45 19 153 63 205 87 330 149 163 82 231 119 307 169
29 19 57 34 63 34 5 0 10 4 10 9 0 5 13 14 30 21 17 7 30 16 30 21 0 4 8 10
19 14 10 3 31 17 47 30 38 32 44 31 44 -6 0 -25 3 -29 14 -20 11 9 15 -2 25
-58 6 -39 11 -87 11 -109 0 -21 3 -42 7 -46 5 -4 15 -40 25 -79 9 -40 23 -99
32 -132 10 -33 21 -78 27 -100 9 -38 37 -116 64 -180 7 -16 16 -41 20 -55 4
-14 21 -50 36 -81 16 -31 29 -60 29 -63 0 -7 52 -97 132 -227 34 -56 127 -182
170 -230 13 -14 48 -54 78 -89 61 -70 220 -210 330 -291 279 -204 581 -331
975 -410 137 -27 495 -38 656 -20 519 59 973 272 1339 627 330 321 535 703
621 1159 26 137 37 476 20 611 -51 396 -205 773 -430 1057 -114 143 -205 207
-325 228 -205 35 -400 -92 -453 -296 -31 -121 2 -228 120 -384 224 -297 304
-504 314 -817 9 -257 -27 -423 -137 -649 -189 -384 -558 -662 -1004 -757 -138
-29 -407 -31 -546 -4 -295 57 -536 184 -746 391 -294 291 -440 682 -394 1059
23 192 58 310 139 468 48 94 76 138 181 283 106 146 136 237 126 382 -6 81
-12 104 -46 175 -22 46 -40 88 -40 95 0 6 -6 13 -12 15 -7 3 -11 18 -10 36 2
23 -3 34 -18 42 l-21 11 21 29 c11 15 20 31 20 34 0 4 21 50 46 104 25 53 55
120 66 147 11 28 26 64 33 80 16 36 61 161 82 230 9 28 24 75 33 105 63 193
115 464 150 776 21 192 11 618 -20 819 -5 33 -12 80 -15 105 -10 77 -11 77
-117 56 -51 -11 -135 -30 -186 -43 -51 -12 -95 -23 -99 -23 -44 0 233 70 392
99 381 69 780 85 1162 45z m-1570 -150 c-3 -3 -12 -4 -19 -1 -8 3 -5 6 6 6 11
1 17 -2 13 -5z m-82 -24 c-27 -12 -43 -12 -25 0 8 5 22 9 30 9 10 0 8 -3 -5
-9z m-60 -20 c-27 -12 -43 -12 -25 0 8 5 22 9 30 9 10 0 8 -3 -5 -9z m-48 -16
c-3 -3 -12 -4 -19 -1 -8 3 -5 6 6 6 11 1 17 -2 13 -5z m-3490 -3506 c-3 -8 -6
-5 -6 6 -1 11 2 17 5 13 3 -3 4 -12 1 -19z m670 -40 c-3 -7 -5 -2 -5 12 0 14
2 19 5 13 2 -7 2 -19 0 -25z m-10 -155 c-3 -10 -5 -4 -5 12 0 17 2 24 5 18 2
-7 2 -21 0 -30z m-680 -345 c-1 -51 -3 -10 -3 92 0 102 2 143 3 93 2 -51 2
-135 0 -185z m670 80 c-2 -24 -4 -7 -4 37 0 44 2 63 4 43 2 -21 2 -57 0 -80z
m-2190 -45 c-3 -10 -5 -2 -5 17 0 19 2 27 5 18 2 -10 2 -26 0 -35z m1087
-3544 c-3 -5 -10 -7 -15 -3 -5 3 -7 10 -3 15 3 5 10 7 15 3 5 -3 7 -10 3 -15z"/>
<path d="M5760 10530 c-20 -6 -21 -8 -5 -8 11 0 31 4 45 8 20 6 21 8 5 8 -11
0 -31 -4 -45 -8z"/>
<path d="M6375 8573 c-192 -17 -340 -122 -397 -283 -34 -96 -40 -165 -33 -414
4 -132 8 -266 10 -296 5 -85 20 -728 31 -1280 3 -173 10 -343 15 -378 25 -163
129 -285 288 -337 84 -28 210 -18 292 22 124 62 209 179 229 318 10 70 30
1381 30 1956 0 277 -2 313 -20 370 -40 130 -137 239 -249 283 -57 22 -158 42
-196 39z"/>
<path d="M2362 5780 c0 -14 2 -19 5 -12 2 6 2 18 0 25 -3 6 -5 1 -5 -13z"/>
<path d="M2371 5734 c0 -11 3 -14 6 -6 3 7 2 16 -1 19 -3 4 -6 -2 -5 -13z"/>
<path d="M8011 12526 c8 -7 191 -57 195 -53 3 2 -37 16 -89 31 -89 25 -115 30
-106 22z"/>
<path d="M8048 12483 c7 -3 16 -2 19 1 4 3 -2 6 -13 5 -11 0 -14 -3 -6 -6z"/>
<path d="M8118 12463 c7 -3 16 -2 19 1 4 3 -2 6 -13 5 -11 0 -14 -3 -6 -6z"/>
<path d="M8258 12453 c7 -3 16 -2 19 1 4 3 -2 6 -13 5 -11 0 -14 -3 -6 -6z"/>
<path d="M8300 12440 c8 -5 22 -9 30 -9 10 0 8 3 -5 9 -27 12 -43 12 -25 0z"/>
<path d="M5638 11213 c7 -3 16 -2 19 1 4 3 -2 6 -13 5 -11 0 -14 -3 -6 -6z"/>
<path d="M5598 11203 c7 -3 16 -2 19 1 4 3 -2 6 -13 5 -11 0 -14 -3 -6 -6z"/>
<path d="M122 6090 c0 -14 2 -19 5 -12 2 6 2 18 0 25 -3 6 -5 1 -5 -13z"/>
<path d="M1460 2470 c17 -22 34 -40 37 -40 2 0 -10 18 -27 40 -17 22 -34 40
-37 40 -2 0 10 -18 27 -40z"/>
<path d="M1435 2450 c10 -11 20 -20 23 -20 3 0 -3 9 -13 20 -10 11 -20 20 -23
20 -3 0 3 -9 13 -20z"/>
<path d="M1475 2400 c10 -11 20 -20 23 -20 3 0 -3 9 -13 20 -10 11 -20 20 -23
20 -3 0 3 -9 13 -20z"/>
<path d="M1525 2390 c10 -11 20 -20 23 -20 3 0 -3 9 -13 20 -10 11 -20 20 -23
20 -3 0 3 -9 13 -20z"/>
<path d="M1520 2345 c13 -14 26 -25 28 -25 3 0 -5 11 -18 25 -13 14 -26 25
-28 25 -3 0 5 -11 18 -25z"/>
<path d="M1560 2346 c0 -2 8 -10 18 -17 15 -13 16 -12 3 4 -13 16 -21 21 -21
13z"/>
<path d="M1560 2296 c0 -2 8 -10 18 -17 15 -13 16 -12 3 4 -13 16 -21 21 -21
13z"/>
<path d="M1610 2286 c0 -2 8 -10 18 -17 15 -13 16 -12 3 4 -13 16 -21 21 -21
13z"/>
<path d="M1610 2236 c0 -2 8 -10 18 -17 15 -13 16 -12 3 4 -13 16 -21 21 -21
13z"/>
<path d="M1690 2146 c0 -2 8 -10 18 -17 15 -13 16 -12 3 4 -13 16 -21 21 -21
13z"/>
</g>
</svg>
