<?xml version="1.0" standalone="no"?>
<!DOCTYPE svg PUBLIC "-//W3C//DTD SVG 20010904//EN"
 "http://www.w3.org/TR/2001/REC-SVG-20010904/DTD/svg10.dtd">
<svg version="1.0" xmlns="http://www.w3.org/2000/svg"
 width="1231.000000pt" height="1280.000000pt" viewBox="0 0 1231.000000 1280.000000"
 preserveAspectRatio="xMidYMid meet">
<metadata>
Created by potrace 1.15, written by Peter Selinger 2001-2017
</metadata>
<g transform="translate(0.000000,1280.000000) scale(0.100000,-0.100000)"
fill="#ffffff" stroke="none">
<path d="M3895 12689 c-1285 -124 -2416 -804 -3117 -1875 -383 -586 -607
-1236 -668 -1944 -20 -238 -11 -621 21 -870 203 -1580 1301 -2917 2809 -3421
345 -115 633 -174 1005 -204 917 -77 1863 171 2634 688 l105 70 94 -98 94 -98
-81 -81 c-48 -48 -81 -90 -81 -102 0 -23 4250 -4734 4282 -4747 24 -9 184 72
311 157 339 228 758 660 955 984 36 59 49 89 44 102 -4 11 -392 426 -862 922
-471 497 -1458 1539 -2193 2316 -736 776 -1345 1412 -1354 1412 -9 0 -66 -50
-128 -110 l-112 -111 -79 81 c-43 45 -83 88 -87 96 -6 11 4 32 36 72 93 119
152 201 231 322 119 180 226 374 306 550 513 1135 500 2417 -35 3535 -531
1110 -1545 1940 -2735 2240 -221 56 -434 91 -690 114 -134 13 -575 12 -705 0z
m2105 -3949 c8 -5 11 -10 5 -10 -5 0 -17 5 -25 10 -8 5 -10 10 -5 10 6 0 17
-5 25 -10z m340 -176 c0 -2 -13 2 -30 11 -16 9 -30 18 -30 21 0 2 14 -2 30
-11 17 -9 30 -18 30 -21z m70 -40 c0 -2 -9 0 -20 6 -11 6 -20 13 -20 16 0 2 9
0 20 -6 11 -6 20 -13 20 -16z m50 -30 c0 -2 -9 0 -20 6 -11 6 -20 13 -20 16 0
2 9 0 20 -6 11 -6 20 -13 20 -16z m80 -50 c0 -2 -9 0 -20 6 -11 6 -20 13 -20
16 0 2 9 0 20 -6 11 -6 20 -13 20 -16z m100 -70 c0 -3 -13 4 -30 16 -16 12
-30 24 -30 26 0 3 14 -4 30 -16 17 -12 30 -24 30 -26z m61 -41 c13 -16 12 -17
-3 -4 -10 7 -18 15 -18 17 0 8 8 3 21 -13z m44 -33 c10 -11 16 -20 13 -20 -3
0 -13 9 -23 20 -10 11 -16 20 -13 20 3 0 13 -9 23 -20z m46 -37 c13 -16 12
-17 -3 -4 -10 7 -18 15 -18 17 0 8 8 3 21 -13z m59 -48 c19 -19 32 -35 29 -35
-3 0 -20 16 -39 35 -19 19 -32 35 -29 35 3 0 20 -16 39 -35z m135 -125 c49
-49 87 -90 85 -90 -3 0 -46 41 -95 90 -49 50 -87 90 -85 90 3 0 46 -40 95 -90z
m-1380 10 c133 -24 168 -32 310 -70 50 -13 129 -40 147 -50 10 -6 23 -10 30
-10 20 0 248 -114 338 -170 85 -52 197 -129 222 -152 7 -7 35 -31 63 -53 64
-51 198 -186 250 -250 22 -27 48 -59 58 -70 30 -33 157 -223 157 -234 0 -6 3
-11 8 -11 4 0 13 -13 20 -30 11 -25 11 -35 0 -60 -7 -16 -16 -30 -19 -30 -14
0 -16 -38 -4 -61 11 -20 10 -27 -7 -52 -11 -16 -21 -41 -22 -56 -1 -15 -14
-47 -29 -70 -16 -24 -26 -48 -24 -55 5 -11 -6 -29 -54 -84 -6 -7 -8 -19 -6
-27 3 -7 0 -15 -6 -18 -7 -3 -21 -22 -32 -43 -11 -22 -34 -57 -51 -79 -18 -22
-33 -44 -34 -50 -1 -5 -15 -25 -31 -42 -16 -18 -29 -37 -29 -43 0 -5 -15 -25
-32 -44 -18 -19 -51 -56 -73 -82 -47 -54 -211 -229 -239 -253 -10 -9 -31 -27
-45 -41 -15 -14 -45 -38 -66 -54 -22 -16 -47 -37 -55 -46 -28 -31 -244 -186
-345 -247 -105 -64 -327 -176 -433 -219 -76 -31 -407 -132 -453 -138 -19 -3
-56 -10 -84 -16 -27 -6 -81 -15 -120 -20 -38 -5 -81 -12 -95 -15 -44 -8 -271
-18 -390 -17 -126 1 -411 24 -585 47 -136 19 -337 56 -332 62 3 2 54 -5 113
-16 346 -65 706 -75 1042 -29 l82 11 -217 82 c-603 226 -1177 509 -1646 810
-91 58 -176 115 -189 126 -13 11 11 -2 52 -29 175 -115 337 -211 326 -194 -7
12 9 225 25 327 28 179 75 356 121 465 6 14 14 34 18 45 43 116 220 433 260
465 3 3 17 21 30 40 13 19 27 37 30 40 3 3 25 30 50 60 58 70 148 160 230 230
36 30 67 57 70 60 3 3 21 17 40 30 19 13 37 27 40 30 8 10 88 63 165 109 119
73 320 164 450 206 141 45 363 90 490 99 92 7 449 -3 510 -14z m1501 -142 l29
-33 -32 29 c-31 28 -38 36 -30 36 2 0 16 -15 33 -32z m75 -90 c31 -43 17 -34
-21 15 -19 23 -26 36 -17 28 10 -8 27 -27 38 -43z m80 -110 c19 -34 2 -17 -30
30 -25 35 -26 40 -6 17 14 -16 30 -38 36 -47z m50 -83 l10 -20 -16 20 c-9 11
-21 29 -26 40 l-10 20 16 -20 c9 -11 21 -29 26 -40z m29 -45 c6 -11 8 -20 6
-20 -3 0 -10 9 -16 20 -6 11 -8 20 -6 20 3 0 10 -9 16 -20z m61 -111 c16 -34
29 -63 27 -65 -2 -2 -18 26 -36 61 -17 36 -30 65 -27 65 3 0 19 -27 36 -61z
m53 -115 c3 -8 2 -12 -4 -9 -6 3 -10 10 -10 16 0 14 7 11 14 -7z m-4893 -1171
c13 -16 12 -17 -3 -4 -10 7 -18 15 -18 17 0 8 8 3 21 -13z m40 -30 c13 -16 12
-17 -3 -4 -17 13 -22 21 -14 21 2 0 10 -8 17 -17z m816 -1029 c-3 -3 -12 -4
-19 -1 -8 3 -5 6 6 6 11 1 17 -2 13 -5z m40 -10 c-3 -3 -12 -4 -19 -1 -8 3 -5
6 6 6 11 1 17 -2 13 -5z m40 -10 c-3 -3 -12 -4 -19 -1 -8 3 -5 6 6 6 11 1 17
-2 13 -5z"/>
</g>
</svg>
