?xml version="1.0" standalone="no"?>
<!DOCTYPE svg PUBLIC "-//W3C//DTD SVG 20010904//EN"
 "http://www.w3.org/TR/2001/REC-SVG-20010904/DTD/svg10.dtd">
<svg version="1.0" xmlns="http://www.w3.org/2000/svg"
 width="30.000000pt" height="30.000000pt" viewBox="0 0 30.000000 30.000000"
 preserveAspectRatio="xMidYMid meet">
<metadata>
Created by potrace 1.10, written by Peter Selinger 2001-2011
</metadata>
<g transform="translate(0.000000,30.000000) scale(0.100000,-0.100000)"
fill="#000000" stroke="none">
<path d="M42 264 c-32 -27 -42 -43 -42 -66 l0 -31 23 34 c70 103 184 103 254
0 l23 -34 0 28 c0 20 -12 39 -40 67 -39 36 -44 38 -109 38 -63 0 -70 -2 -109
-36z"/>
<path d="M120 249 c-34 -14 -90 -69 -90 -89 0 -21 57 -76 93 -89 21 -8 36 -7
60 3 35 14 87 69 87 91 0 14 -74 85 -89 85 -5 0 -15 2 -23 4 -7 3 -24 0 -38
-5z m60 -49 c36 -36 18 -90 -30 -90 -50 0 -69 66 -28 94 29 20 34 20 58 -4z"/>
<path d="M130 174 c-11 -12 -10 -18 3 -32 16 -15 18 -15 34 0 13 14 14 20 3
32 -7 9 -16 16 -20 16 -4 0 -13 -7 -20 -16z"/>
<path d="M0 123 c0 -30 41 -78 87 -102 28 -14 98 -14 126 0 46 24 87 72 87
102 l0 30 -30 -41 c-71 -98 -179 -95 -247 7 l-23 34 0 -30z"/>
</g>
</svg>
