<?xml version="1.0" standalone="no"?>
<!DOCTYPE svg PUBLIC "-//W3C//DTD SVG 20010904//EN"
 "http://www.w3.org/TR/2001/REC-SVG-20010904/DTD/svg10.dtd">
<svg version="1.0" xmlns="http://www.w3.org/2000/svg"
 width="983.000000pt" height="1280.000000pt" viewBox="0 0 983.000000 1280.000000"
 preserveAspectRatio="xMidYMid meet">
<metadata>
Created by potrace 1.15, written by Peter Selinger 2001-2017
</metadata>
<g transform="translate(0.000000,1280.000000) scale(0.100000,-0.100000)"
fill="#ffffff" stroke="none">
<path d="M1795 12793 c-272 -7 -562 -47 -720 -98 -184 -60 -315 -137 -442
-258 -238 -228 -341 -509 -373 -1022 -16 -262 3 -1671 24 -1785 23 -121 69
-262 116 -354 148 -288 444 -529 750 -611 206 -55 213 -55 1596 -55 700 0
1274 -3 1274 -7 0 -36 -499 -717 -1410 -1923 -251 -333 -674 -900 -940 -1260
-584 -792 -803 -1086 -1024 -1375 -308 -402 -489 -703 -549 -915 -105 -365
-131 -1635 -42 -2075 56 -280 167 -505 327 -662 96 -95 161 -143 277 -202 270
-138 553 -186 1071 -184 168 1 1808 5 3645 10 3062 8 3348 10 3430 26 415 77
684 267 841 596 78 162 128 355 161 618 16 121 18 219 16 788 -3 642 -10 834
-39 1030 -50 342 -163 595 -342 767 -150 144 -312 224 -573 282 -287 64 -612
75 -2132 76 l-1037 0 51 83 c201 321 455 678 1044 1467 215 289 571 775 792
1080 1054 1463 1295 1797 1402 1952 423 612 550 913 582 1388 18 251 -2 1497
-26 1617 -52 272 -145 465 -299 619 -233 233 -571 344 -1136 374 -163 8 -6024
21 -6315 13z"/>
</g>
</svg>
