<?xml version="1.0" standalone="no"?>
<!DOCTYPE svg PUBLIC "-//W3C//DTD SVG 20010904//EN"
 "http://www.w3.org/TR/2001/REC-SVG-20010904/DTD/svg10.dtd">
<svg version="1.0" xmlns="http://www.w3.org/2000/svg"
 width="650.000000pt" height="651.000000pt" viewBox="0 0 650.000000 651.000000"
 preserveAspectRatio="xMidYMid meet">

<g transform="translate(0.000000,651.000000) scale(0.100000,-0.100000)"
fill="#000000" stroke="none">
<path d="M2760 5730 l0 -380 -312 0 c-172 0 -404 -3 -515 -7 l-203 -6 0 -514
0 -513 830 2 c887 3 845 5 819 -45 -18 -33 -861 -1154 -1086 -1445 -113 -144
-287 -365 -389 -489 -301 -372 -324 -436 -324 -920 l0 -273 593 -2 592 -3 3
-362 2 -363 475 0 475 0 0 370 0 370 605 0 605 0 -2 518 -3 517 -907 3 -908 2
0 23 c0 14 84 135 221 317 121 162 286 384 367 494 251 338 657 870 849 1111
193 241 245 326 284 455 20 69 23 103 28 415 3 187 5 343 3 348 -2 4 -262 7
-578 7 l-574 0 0 375 0 375 -475 0 -475 0 0 -380z"/>
</g>
</svg>
