<?xml version="1.0" standalone="no"?>
<!DOCTYPE svg PUBLIC "-//W3C//DTD SVG 20010904//EN"
 "http://www.w3.org/TR/2001/REC-SVG-20010904/DTD/svg10.dtd">
<svg version="1.0" xmlns="http://www.w3.org/2000/svg"
 width="300.000000pt" height="278.000000pt" viewBox="0 0 300.000000 278.000000"
 preserveAspectRatio="xMidYMid meet">
<metadata>
Created by potrace 1.10, written by Peter Selinger 2001-2011
</metadata>
<g transform="translate(0.000000,278.000000) scale(0.100000,-0.100000)"
fill="#000000" stroke="none">
<path d="M1325 2598 c-388 -43 -788 -308 -1111 -733 -128 -170 -204 -299 -204
-349 l0 -31 21 40 c73 137 164 273 275 406 122 146 194 218 309 308 221 172
399 260 634 311 120 26 360 29 478 5 386 -79 733 -321 1035 -720 102 -136 208
-315 208 -352 0 -20 -77 -155 -150 -263 -113 -168 -259 -333 -395 -447 -229
-193 -420 -293 -667 -349 -154 -35 -374 -35 -527 1 -297 68 -532 207 -788 467
-162 164 -266 301 -382 503 -39 68 -51 83 -51 63 0 -42 13 -67 118 -228 169
-257 438 -528 647 -653 86 -51 235 -124 270 -133 17 -4 35 -10 40 -14 23 -17
188 -52 296 -62 182 -17 372 7 549 69 66 24 234 104 238 114 2 5 8 9 13 9 35
0 291 202 394 311 146 155 277 325 349 454 9 17 28 50 43 75 36 64 34 119 -7
190 -118 204 -275 404 -437 561 -364 353 -752 498 -1198 447z"/>
<path d="M1350 2394 c-123 -18 -291 -75 -399 -137 -241 -137 -505 -399 -676
-673 -30 -48 -55 -93 -55 -100 0 -12 158 -254 185 -284 8 -8 41 -46 73 -85 72
-86 216 -224 297 -286 191 -147 382 -227 599 -254 108 -13 135 -13 243 0 187
23 355 87 517 197 163 111 352 294 475 462 81 110 161 235 161 251 0 16 -93
164 -158 250 -29 39 -92 113 -140 165 -279 304 -535 454 -847 494 -137 18
-147 18 -275 0z m315 -38 c103 -16 187 -42 295 -93 75 -36 200 -112 227 -139
8 -8 19 -14 24 -14 5 0 73 -64 152 -142 174 -173 397 -467 375 -494 -4 -5 -38
-54 -75 -109 -97 -146 -163 -227 -282 -345 -135 -134 -255 -224 -389 -290
-149 -74 -132 -68 -297 -112 -52 -14 -349 -15 -400 0 -172 47 -147 38 -297
112 -243 120 -488 354 -687 658 -69 107 -71 87 15 218 125 194 333 416 492
528 284 198 548 268 847 222z"/>
<path d="M1388 1969 c-95 -23 -158 -54 -220 -109 -216 -190 -223 -534 -15
-732 111 -106 264 -153 419 -130 208 31 363 181 409 396 18 85 18 94 3 170
-24 119 -63 197 -137 271 -74 74 -137 108 -249 135 -98 24 -110 24 -210 -1z
m269 -51 c224 -83 342 -303 289 -541 -40 -180 -194 -320 -381 -346 -235 -33
-455 107 -517 327 -45 162 -1 335 114 452 57 58 173 118 249 130 74 11 184 2
246 -22z"/>
<path d="M1423 1765 c-63 -19 -99 -42 -142 -91 -160 -181 -27 -478 214 -478
114 0 211 66 260 177 24 52 27 69 23 132 -8 119 -78 211 -193 254 -60 23 -100
24 -162 6z m145 -34 c109 -40 170 -115 179 -220 14 -156 -95 -276 -252 -276
-119 0 -210 66 -241 173 -42 143 28 275 171 323 65 23 80 23 143 0z"/>
</g>
</svg>
